<svg width="132" height="31" viewBox="0 0 132 31" fill="none" xmlns="http://www.w3.org/2000/svg">
<path id="Vector 7" d="M3.18684 29.9883C1.17379 26.5184 6.65292 20.2284 8.17794 17.3113C9.78155 14.2437 11.2068 11.1034 12.7059 7.99272C13.3908 6.57156 14.4756 4.99818 14.7384 3.42805C15.5023 -1.13653 13.7431 12.6597 12.4487 17.1221C12.271 17.7346 12.1095 20.0717 10.9565 20.0075C9.50248 19.9265 7.75566 18.9491 6.42848 18.4938C5.55764 18.1951 1.46211 17.4806 1.02575 16.5781C0.65316 15.8074 4.44331 15.9395 4.67903 15.9395C7.70183 15.9395 12.0766 16.5376 14.7641 14.9935C18.2452 12.9933 23.3535 9.424 27.1904 12.6993C28.3542 13.6928 28.3222 14.8768 28.168 16.2943C27.8891 18.859 27.196 14.7731 27.3705 13.8109C27.5722 12.6982 28.0232 12.4807 29.1199 12.5337C30.7547 12.6128 29.9311 13.9741 30.8437 14.4258C33.2297 15.6069 37.9316 14.5858 40.5943 14.6623C42.7026 14.7229 43.1827 15.811 45.4568 15.0408C47.4852 14.3537 49.4379 13.8109 51.6056 13.8109C52.8171 13.8109 53.2355 13.877 54.1269 13.1487C54.65 12.7212 55.9162 12.9857 56.5452 12.9595C60.5911 12.7904 59.684 7.16695 59.684 4.63425C59.684 3.58725 59.684 -2.85567 59.684 1.48865C59.684 4.58532 60.5759 7.2774 63.4402 9.22257C68.3052 12.5265 74.901 13.5472 80.7803 13.8109C83.8431 13.9482 79.1646 16.612 78.645 16.8382C73.0356 19.2809 67.9545 22.6535 62.3081 25.0925C59.2288 26.4227 52.8269 31.0079 49.0843 29.7991C46.5959 28.9953 45.442 26.1815 44.402 24.2174C42.8857 21.3539 41.4017 18.4852 39.6167 15.7503C36.9648 11.6872 33.281 13.9152 29.7889 16.4835C26.1975 19.1247 21.8076 22.4353 19.8324 26.3696C18.9185 28.19 17.1816 27.3336 21.6076 26.3933C30.7913 24.4423 40.1734 23.2084 49.496 21.9942C69.0176 19.4516 88.3987 16.5025 107.82 13.3852C113.863 12.4152 119.882 11.6256 125.7 9.7902C127.584 9.19609 129.621 8.69279 131 7.42509" stroke="#0073E1" stroke-width="2" stroke-linecap="round"/>
</svg>
